<svg width="520" height="330" viewBox="0 0 520 330" fill="none" xmlns="http://www.w3.org/2000/svg">
<path d="M507.154 5.9925C506.01 6.61833 478.953 28.0008 447.109 53.5555C392.059 97.6765 389.041 100.284 389.041 103.413C389.041 106.542 392.059 109.254 448.15 154.001C480.618 179.973 508.195 201.356 509.444 201.669C510.693 201.877 512.462 201.251 513.815 199.895L516 197.705V103.309C516 10.269 516 8.91303 513.919 6.82694C511.525 4.42792 510.172 4.32362 507.154 5.9925ZM503.096 181.746C502.888 182.059 480.618 164.536 453.561 142.841C406.628 105.186 404.546 103.413 406.42 101.744C407.46 100.701 429.626 82.8652 455.642 62.1085L502.992 24.3502L503.304 102.892C503.408 146.074 503.304 181.538 503.096 181.746Z" fill="#DB0011" stroke="#DB0011" stroke-width="8"/>
<path d="M5.76911 38.9529C4.10407 40.7261 4 48.8618 4 134.913V228.996L6.91382 232.021C10.8683 236.193 123.571 326 124.82 326C127.109 326 132.104 322.141 184.969 279.793C215.044 255.698 240.124 235.985 240.748 235.985C241.372 235.985 266.452 255.698 296.527 279.793C349.496 322.245 354.387 326 356.676 326C358.654 326 476.351 231.083 476.976 228.996C477.288 227.849 477.184 226.076 476.559 225.033C474.686 221.486 244.286 37.7012 241.268 37.284C238.771 36.9711 230.237 43.3337 182.159 81.8222C151.252 106.542 125.652 126.778 125.34 126.778C125.028 126.778 99.5317 106.542 68.7285 81.9265C10.6602 35.3022 9.61951 34.6764 5.76911 38.9529ZM66.9594 95.9034C93.2878 116.973 114.933 134.6 115.037 134.913C115.246 135.539 85.3789 159.634 22.1073 210.013L16.4878 214.602V135.122C16.4878 71.6003 16.8 55.8503 17.8407 56.5804C18.465 57.2062 40.6309 74.8338 66.9594 95.9034ZM235.024 135.226C235.024 198.331 234.712 214.394 233.776 213.768C233.047 213.246 210.465 195.41 183.72 174.028L135.018 135.122L184.241 95.5904C211.298 73.7907 233.776 55.9546 234.296 55.9546C234.712 55.8503 235.024 91.5225 235.024 135.226ZM296.423 95.0689C323.376 116.66 345.333 134.6 345.333 135.018C345.333 135.748 251.05 211.786 247.928 213.664C246.68 214.394 246.472 201.564 246.472 135.122C246.472 91.5225 246.68 55.8503 246.992 55.8503C247.304 55.8503 269.574 73.4778 296.423 95.0689ZM350.537 227.015C350.537 295.96 350.328 306.286 348.976 305.869C347.727 305.348 255.837 232.23 251.883 228.475C250.738 227.432 260.208 219.505 300.169 187.379C327.434 165.579 349.912 147.639 350.12 147.639C350.328 147.639 350.537 183.311 350.537 227.015ZM460.741 227.223C460.846 227.953 363.753 306.182 362.608 306.182C362.296 306.182 361.984 270.51 361.984 226.91V147.639L411.311 187.066C438.472 208.657 460.741 226.702 460.741 227.223ZM119.512 227.432C119.512 270.718 119.2 306.182 118.888 306.182C118.472 306.182 96.0976 288.45 69.0407 266.755L19.8179 227.328L68.9366 188.005C95.8894 166.413 118.263 148.682 118.784 148.682C119.2 148.682 119.512 184.145 119.512 227.432ZM182.367 188.422C209.008 209.804 230.55 227.64 230.133 228.058C227.532 230.665 132.416 306.182 131.792 306.182C131.272 306.182 130.959 270.718 130.959 227.328C130.959 159.216 131.167 148.577 132.416 148.995C133.249 149.307 155.727 167.144 182.367 188.422Z" fill="#DB0011" stroke="#DB0011" stroke-width="8"/>
</svg>
